{
    "asset" : {
        "generator" : "Khronos glTF Blender I/O v1.0.5",
        "version" : "2.0"
    },
    "scene" : 0,
    "scenes" : [
        {
            "name" : "Scene",
            "nodes" : [
                0,
                1,
                2,
                3
            ]
        }
    ],
    "nodes" : [
        {
            "name" : "Light",
            "rotation" : [
                0.16907575726509094,
                0.7558803558349609,
                -0.27217137813568115,
                0.570947527885437
            ],
            "translation" : [
                4.076245307922363,
                5.903861999511719,
                -1.0054539442062378
            ]
        },
        {
            "name" : "Camera",
            "rotation" : [
                0.483536034822464,
                0.33687159419059753,
                -0.20870360732078552,
                0.7804827094078064
            ],
            "translation" : [
                7.358891487121582,
                4.958309173583984,
                6.925790786743164
            ]
        },
        {
            "mesh" : 0,
            "name" : "donut"
        },
        {
            "mesh" : 1,
            "name" : "icing",
            "scale" : [
                1.0367296934127808,
                1.0367296934127808,
                1.0367296934127808
            ],
            "translation" : [
                -7.035641465336084e-05,
                0.0006860892754048109,
                -0.00017294520512223244
            ]
        }
    ],
    "meshes" : [
        {
            "name" : "Torus",
            "primitives" : [
                {
                    "attributes" : {
                        "POSITION" : 0,
                        "NORMAL" : 1,
                        "TEXCOORD_0" : 2
                    },
                    "indices" : 3
                }
            ]
        },
        {
            "name" : "Torus.001",
            "primitives" : [
                {
                    "attributes" : {
                        "POSITION" : 4,
                        "NORMAL" : 5,
                        "TEXCOORD_0" : 6
                    },
                    "indices" : 7
                }
            ]
        }
    ],
    "accessors" : [
        {
            "bufferView" : 0,
            "componentType" : 5126,
            "count" : 377,
            "max" : [
                0.07692199945449829,
                0.028465164825320244,
                0.07598210126161575
            ],
            "min" : [
                -0.07686548680067062,
                -0.026000000536441803,
                -0.07600000500679016
            ],
            "type" : "VEC3"
        },
        {
            "bufferView" : 1,
            "componentType" : 5126,
            "count" : 377,
            "type" : "VEC3"
        },
        {
            "bufferView" : 2,
            "componentType" : 5126,
            "count" : 377,
            "type" : "VEC2"
        },
        {
            "bufferView" : 3,
            "componentType" : 5123,
            "count" : 2016,
            "type" : "SCALAR"
        },
        {
            "bufferView" : 4,
            "componentType" : 5126,
            "count" : 546,
            "max" : [
                0.07420209050178528,
                0.028465166687965393,
                0.07328898459672928
            ],
            "min" : [
                -0.07480690628290176,
                -0.018298763781785965,
                -0.07340023666620255
            ],
            "type" : "VEC3"
        },
        {
            "bufferView" : 5,
            "componentType" : 5126,
            "count" : 546,
            "type" : "VEC3"
        },
        {
            "bufferView" : 6,
            "componentType" : 5126,
            "count" : 546,
            "type" : "VEC2"
        },
        {
            "bufferView" : 7,
            "componentType" : 5123,
            "count" : 2808,
            "type" : "SCALAR"
        }
    ],
    "bufferViews" : [
        {
            "buffer" : 0,
            "byteLength" : 4524,
            "byteOffset" : 0
        },
        {
            "buffer" : 0,
            "byteLength" : 4524,
            "byteOffset" : 4524
        },
        {
            "buffer" : 0,
            "byteLength" : 3016,
            "byteOffset" : 9048
        },
        {
            "buffer" : 0,
            "byteLength" : 4032,
            "byteOffset" : 12064
        },
        {
            "buffer" : 0,
            "byteLength" : 6552,
            "byteOffset" : 16096
        },
        {
            "buffer" : 0,
            "byteLength" : 6552,
            "byteOffset" : 22648
        },
        {
            "buffer" : 0,
            "byteLength" : 4368,
            "byteOffset" : 29200
        },
        {
            "buffer" : 0,
            "byteLength" : 5616,
            "byteOffset" : 33568
        }
    ],
    "buffers" : [
        {
            "byteLength" : 39184,
            "uri" : "data:application/octet-stream;base64,"
        }
    ]
}
